<svg width="43" height="38" viewBox="0 0 43 38" fill="none" xmlns="http://www.w3.org/2000/svg">
<path d="M38.4166 14.625H12.7704L19.8841 7.51121C20.7048 6.69086 21.1661 5.57808 21.1663 4.41766C21.1666 3.25724 20.7059 2.14424 19.8856 1.3235C19.0652 0.50277 17.9524 0.0415334 16.792 0.0412599C15.6316 0.0409864 14.5186 0.501699 13.6979 1.32205L3.23869 11.7812C1.32759 13.6976 0.254395 16.2935 0.254395 19C0.254395 21.7064 1.32759 24.3024 3.23869 26.2187L13.6979 36.6779C14.5186 37.4982 15.6316 37.9589 16.792 37.9587C17.9524 37.9584 19.0652 37.4972 19.8856 36.6764C20.7059 35.8557 21.1666 34.7427 21.1663 33.5823C21.1661 32.4218 20.7048 31.3091 19.8841 30.4887L12.7704 23.375H38.4166C39.5769 23.375 40.6897 22.914 41.5102 22.0936C42.3307 21.2731 42.7916 20.1603 42.7916 19C42.7916 17.8396 42.3307 16.7268 41.5102 15.9064C40.6897 15.0859 39.5769 14.625 38.4166 14.625Z" fill="#3C2F2F"></path>
</svg>
