<svg width="25" height="26" viewBox="0 0 25 26" fill="none" xmlns="http://www.w3.org/2000/svg">
<g clip-path="url('#clip0_163_179')">
<rect width="24.1224" height="25.5291" transform="translate(0.785645 0.14679)" fill="black"></rect>
<path d="M11.5402 2.93938C11.2576 2.30344 10.8098 1.76574 10.2492 1.38912C9.68854 1.0125 9.03821 0.8125 8.37416 0.8125C7.71011 0.8125 7.05977 1.0125 6.49913 1.38912C5.9385 1.76574 5.49071 2.30344 5.20809 2.93938H2.2933C1.89344 2.93938 1.50997 3.10749 1.22723 3.40672C0.944486 3.70594 0.785645 4.11178 0.785645 4.53495H0.785645C0.785645 4.95812 0.944486 5.36396 1.22723 5.66319C1.50997 5.96242 1.89344 6.13052 2.2933 6.13052H5.20306C5.48568 6.76647 5.93347 7.30416 6.49411 7.68079C7.05475 8.05741 7.70508 8.2574 8.36913 8.2574C9.03318 8.2574 9.68352 8.05741 10.2442 7.68079C10.8048 7.30416 11.2526 6.76647 11.5352 6.13052H23.4004C23.8003 6.13052 24.1838 5.96242 24.4665 5.66319C24.7492 5.36396 24.9081 4.95812 24.9081 4.53495C24.9081 4.11178 24.7492 3.70594 24.4665 3.40672C24.1838 3.10749 23.8003 2.93938 23.4004 2.93938H11.5402Z" fill="white"></path>
<path d="M17.3246 9.18768C16.6606 9.18893 16.0106 9.38949 15.45 9.76606C14.8894 10.1426 14.4412 10.6798 14.1575 11.3151H2.2933C1.89344 11.3151 1.50997 11.4832 1.22723 11.7824C0.944486 12.0817 0.785645 12.4875 0.785645 12.9107H0.785645C0.785645 13.3338 0.944486 13.7397 1.22723 14.0389C1.50997 14.3381 1.89344 14.5062 2.2933 14.5062H14.1535C14.4361 15.1422 14.8839 15.6799 15.4445 16.0565C16.0052 16.4331 16.6555 16.6331 17.3196 16.6331C17.9836 16.6331 18.6339 16.4331 19.1946 16.0565C19.7552 15.6799 20.203 15.1422 20.4856 14.5062H23.4004C23.8003 14.5062 24.1838 14.3381 24.4665 14.0389C24.7492 13.7397 24.9081 13.3338 24.9081 12.9107C24.9081 12.4875 24.7492 12.0817 24.4665 11.7824C24.1838 11.4832 23.8003 11.3151 23.4004 11.3151H20.4907C20.207 10.6799 19.759 10.1429 19.1986 9.76634C18.6382 9.38978 17.9884 9.18914 17.3246 9.18768V9.18768Z" fill="white"></path>
<path d="M8.36913 17.5644C7.70532 17.5658 7.0555 17.7665 6.4951 18.1431C5.9347 18.5196 5.48669 19.0566 5.20306 19.6918H2.2933C1.89344 19.6918 1.50997 19.8599 1.22723 20.1591C0.944486 20.4584 0.785645 20.8642 0.785645 21.2874H0.785645C0.785645 21.7105 0.944486 22.1164 1.22723 22.4156C1.50997 22.7148 1.89344 22.8829 2.2933 22.8829H5.20306C5.48568 23.5189 5.93347 24.0566 6.49411 24.4332C7.05475 24.8098 7.70508 25.0098 8.36913 25.0098C9.03318 25.0098 9.68352 24.8098 10.2442 24.4332C10.8048 24.0566 11.2526 23.5189 11.5352 22.8829H23.4004C23.8003 22.8829 24.1838 22.7148 24.4665 22.4156C24.7492 22.1164 24.9081 21.7105 24.9081 21.2874C24.9081 20.8642 24.7492 20.4584 24.4665 20.1591C24.1838 19.8599 23.8003 19.6918 23.4004 19.6918H11.5402C11.2562 19.0558 10.8074 18.5182 10.2461 18.1416C9.68469 17.765 9.0338 17.5648 8.36913 17.5644V17.5644Z" fill="white"></path>
</g>
<defs>
<clipPath id="clip0_163_179">
<rect width="24.1224" height="25.5291" fill="white" transform="translate(0.785645 0.14679)"></rect>
</clipPath>
</defs>
</svg>
