<svg width="21" height="26" viewBox="0 0 21 26" fill="none" xmlns="http://www.w3.org/2000/svg">
<path d="M10.4287 12.375C9.48151 12.375 8.5731 12.0458 7.90333 11.4597C7.23356 10.8737 6.85728 10.0788 6.85728 9.25C6.85728 8.4212 7.23356 7.62634 7.90333 7.04029C8.5731 6.45424 9.48151 6.125 10.4287 6.125C11.3759 6.125 12.2843 6.45424 12.9541 7.04029C13.6239 7.62634 14.0001 8.4212 14.0001 9.25C14.0001 9.66038 13.9078 10.0667 13.7283 10.4459C13.5488 10.825 13.2857 11.1695 12.9541 11.4597C12.6225 11.7499 12.2287 11.9801 11.7954 12.1371C11.3621 12.2942 10.8977 12.375 10.4287 12.375ZM10.4287 0.5C7.77655 0.5 5.23301 1.42187 3.35764 3.06282C1.48228 4.70376 0.428711 6.92936 0.428711 9.25C0.428711 15.8125 10.4287 25.5 10.4287 25.5C10.4287 25.5 20.4287 15.8125 20.4287 9.25C20.4287 6.92936 19.3751 4.70376 17.4998 3.06282C15.6244 1.42187 13.0809 0.5 10.4287 0.5Z" fill="black"></path>
</svg>
