<svg width="27" height="28" viewBox="0 0 27 28" fill="none" xmlns="http://www.w3.org/2000/svg">
<path d="M13.2861 11.5C13.8607 11.5 14.4296 11.3868 14.9604 11.167C15.4912 10.9471 15.9735 10.6248 16.3797 10.2186C16.786 9.81234 17.1082 9.33004 17.3281 8.79924C17.548 8.26844 17.6611 7.69953 17.6611 7.125C17.6611 6.55047 17.548 5.98156 17.3281 5.45076C17.1082 4.91996 16.786 4.43766 16.3797 4.03141C15.9735 3.62515 15.4912 3.30289 14.9604 3.08303C14.4296 2.86316 13.8607 2.75 13.2861 2.75C12.1258 2.75 11.013 3.21094 10.1925 4.03141C9.37207 4.85188 8.91113 5.96468 8.91113 7.125C8.91113 8.28532 9.37207 9.39812 10.1925 10.2186C11.013 11.0391 12.1258 11.5 13.2861 11.5ZM2.03613 24.5V25.25H24.5361V24.5C24.5361 21.7 24.5361 20.3 23.9911 19.23C23.5118 18.2892 22.7469 17.5244 21.8061 17.045C20.7361 16.5 19.3361 16.5 16.5361 16.5H10.0361C7.23613 16.5 5.83613 16.5 4.76613 17.045C3.82536 17.5244 3.06049 18.2892 2.58113 19.23C2.03613 20.3 2.03613 21.7 2.03613 24.5Z" fill="black" stroke="black" stroke-width="4" stroke-linecap="round" stroke-linejoin="round"></path>
</svg>
