<svg width="45" height="46" viewBox="0 0 45 46" fill="none" xmlns="http://www.w3.org/2000/svg">
<g clip-path="url('#clip0_130_4154')">
<path d="M22.395 0.5C16.4458 0.527763 10.7498 2.91054 6.55293 7.12711C2.35605 11.3437 -6.47794e-05 17.0508 1.33582e-09 23C1.33583e-09 28.9674 2.37053 34.6903 6.5901 38.9099C10.8097 43.1295 16.5326 45.5 22.5 45.5C28.4674 45.5 34.1903 43.1295 38.4099 38.9099C42.6295 34.6903 45 28.9674 45 23C45 17.0326 42.6295 11.3097 38.4099 7.0901C34.1903 2.87053 28.4674 0.5 22.5 0.5L22.395 0.5ZM31.6987 14.045C31.8862 14.0413 32.3006 14.0881 32.5706 14.3075C32.7509 14.4626 32.8655 14.6804 32.8913 14.9169C32.9212 15.0913 32.9588 15.4906 32.9287 15.8019C32.5913 19.3606 31.125 27.9931 30.3787 31.9775C30.0637 33.665 29.4431 34.2294 28.8412 34.2837C27.5362 34.4056 26.5444 33.4212 25.2788 32.5925C23.2987 31.2931 22.1794 30.485 20.2575 29.2175C18.0356 27.755 19.4756 26.9487 20.7413 25.6362C21.0731 25.2913 26.8294 20.0544 26.9419 19.58C26.955 19.52 26.9681 19.2987 26.8369 19.1825C26.7056 19.0662 26.5106 19.1056 26.37 19.1375C26.1712 19.1838 23.0081 21.2744 16.8806 25.4094C15.9806 26.0281 15.1669 26.3281 14.4394 26.3094C13.6369 26.2944 12.0919 25.8575 10.9425 25.4844C9.5325 25.025 8.41313 24.7831 8.51062 24.005C8.56063 23.6 9.11875 23.1856 10.185 22.7619C16.7437 19.9044 21.1175 18.0206 23.3063 17.1106C29.5538 14.5119 30.8531 14.06 31.6987 14.045Z" fill="#FFF"></path>
</g>
<defs>
<clipPath id="clip0_130_4154">
<rect width="45" height="45" fill="white" transform="translate(0 0.5)"></rect>
</clipPath>
</defs>
</svg>
