<svg width="25" height="25" viewBox="0 0 25 25" fill="none" xmlns="http://www.w3.org/2000/svg">
<path d="M23.0263 20.5882C23.5332 20.5885 24.0205 20.8067 24.3874 21.1977C24.7542 21.5886 24.9724 22.1223 24.9967 22.6881C25.0211 23.254 24.8497 23.8086 24.5182 24.2371C24.1866 24.6655 23.7203 24.935 23.2158 24.9897L23.0263 25H1.97368C1.46682 24.9997 0.979481 24.7815 0.612649 24.3906C0.245818 23.9996 0.0276158 23.466 0.00325755 22.9001C-0.0211007 22.3343 0.150252 21.7797 0.48181 21.3512C0.813367 20.9227 1.27971 20.6532 1.78421 20.5985L1.97368 20.5882H23.0263ZM23.0263 10.2941C23.5498 10.2941 24.0518 10.5265 24.4219 10.9402C24.7921 11.3539 25 11.915 25 12.5C25 13.085 24.7921 13.6461 24.4219 14.0598C24.0518 14.4735 23.5498 14.7059 23.0263 14.7059H1.97368C1.45023 14.7059 0.948216 14.4735 0.578079 14.0598C0.207941 13.6461 0 13.085 0 12.5C0 11.915 0.207941 11.3539 0.578079 10.9402C0.948216 10.5265 1.45023 10.2941 1.97368 10.2941H23.0263ZM23.0263 0C23.5498 0 24.0518 0.232405 24.4219 0.646088C24.7921 1.05977 25 1.62085 25 2.20588C25 2.79092 24.7921 3.35199 24.4219 3.76568C24.0518 4.17936 23.5498 4.41176 23.0263 4.41176H1.97368C1.45023 4.41176 0.948216 4.17936 0.578079 3.76568C0.207941 3.35199 0 2.79092 0 2.20588C0 1.62085 0.207941 1.05977 0.578079 0.646088C0.948216 0.232405 1.45023 0 1.97368 0H23.0263Z" fill="black"/>
</svg>
