<svg width="24" height="22" viewBox="0 0 24 22" fill="none" xmlns="http://www.w3.org/2000/svg">
<path d="M12.2861 0C6.00418 0 0.911133 4.85052 0.911133 10.8333C0.911133 16.8161 6.00418 21.6667 12.2861 21.6667C18.5681 21.6667 23.6611 16.8161 23.6611 10.8333C23.6611 4.85052 18.5681 0 12.2861 0ZM17.5361 12.5H12.2861C12.0541 12.5 11.8315 12.4122 11.6674 12.2559C11.5033 12.0996 11.4111 11.8877 11.4111 11.6667V4.16667C11.4111 3.94565 11.5033 3.73369 11.6674 3.57741C11.8315 3.42113 12.0541 3.33333 12.2861 3.33333C12.5182 3.33333 12.7408 3.42113 12.9049 3.57741C13.0689 3.73369 13.1611 3.94565 13.1611 4.16667V10.8333H17.5361C17.7682 10.8333 17.9908 10.9211 18.1549 11.0774C18.3189 11.2337 18.4111 11.4457 18.4111 11.6667C18.4111 11.8877 18.3189 12.0996 18.1549 12.2559C17.9908 12.4122 17.7682 12.5 17.5361 12.5Z" fill="black"/>
</svg>
